<svg xmlns="http://www.w3.org/2000/svg" xmlns:xlink="http://www.w3.org/1999/xlink" xmlns:lucid="lucid" width="1043.27" height="207.83"><g transform="translate(1474.0495667674502 2395.003132409476)" lucid:page-tab-id="0_0"><path d="M-1454.05-2333.37a6 6 0 0 1 6-6h155a6 6 0 0 1 6 6v68a6 6 0 0 1-6 6h-155a6 6 0 0 1-6-6z" stroke="#3a414a" stroke-width="5" fill="#fff"/><use xlink:href="#a" transform="matrix(1,0,0,1,-1442.0495667674502,-2327.3706890010117) translate(47.166666666666686 33.833333333333314)"/><path d="M-896.22-2298c0 41.7-34.32 75.5-76.66 75.5-42.34 0-76.67-33.8-76.67-75.5s34.33-75.5 76.67-75.5 76.66 33.8 76.66 75.5z" stroke="#3a414a" stroke-width="5" fill="#fff"/><use xlink:href="#b" transform="matrix(1,0,0,1,-1044.5471762596887,-2368.503132409476) translate(24.300000000000026 76.20833333333331)"/><path d="M-1050.04-2272.08h-209.65" stroke="#3a414a" stroke-width="5" fill="none"/><path d="M-1047.87-2272.93l1.28 3.35h-3.5v-5h1.72z" stroke="#3a414a" stroke-width=".05" fill="#3a414a"/><path d="M-1276.46-2272.08l14.27-4.64v9.28z" stroke="#3a414a" stroke-width="5" fill="#3a414a"/><path d="M-894.12-2318.93h261.27" stroke="#3a414a" stroke-width="5" fill="none"/><path d="M-894.05-2316.43h-1.93l-.45-1.88-.96-3.13h3.35z" stroke="#3a414a" stroke-width=".05" fill="#3a414a"/><path d="M-616.1-2318.93l-14.25 4.64v-9.26z" stroke="#3a414a" stroke-width="5" fill="#3a414a"/><path d="M-622.78-2272.2h-250.55" stroke="#3a414a" stroke-width="5" fill="none"/><path d="M-620.28-2269.7h-2.57v-5h2.57z" stroke="#3a414a" stroke-width=".05" fill="#3a414a"/><path d="M-890.1-2272.2l14.27-4.63v9.27z" stroke="#3a414a" stroke-width="5" fill="#3a414a"/><path d="M-1270.8-2369a6 6 0 0 1 6-6h174a6 6 0 0 1 6 6v42.33a6 6 0 0 1-6 6h-174a6 6 0 0 1-6-6z" stroke="#000" stroke-opacity="0" stroke-width="5" fill="#fff" fill-opacity="0"/><use xlink:href="#c" transform="matrix(1,0,0,1,-1265.7983715135695,-2370.003132409476) translate(19.0555555555556 28.958333333333318)"/><use xlink:href="#d" transform="matrix(1,0,0,1,-1265.7983715135695,-2370.003132409476) translate(72.87777777777778 28.958333333333318)"/><use xlink:href="#e" transform="matrix(1,0,0,1,-1265.7983715135695,-2370.003132409476) translate(103.69999999999999 28.958333333333318)"/><path d="M-875.97-2366a6 6 0 0 1 6-6h188.88a6 6 0 0 1 6 6v39.33a6 6 0 0 1-6 6h-188.87a6 6 0 0 1-6-6z" stroke="#000" stroke-opacity="0" stroke-width="5" fill="#fff" fill-opacity="0"/><use xlink:href="#c" transform="matrix(1,0,0,1,-870.9674286879915,-2367.003132409476) translate(36.67777777777782 28.583333333333318)"/><use xlink:href="#f" transform="matrix(1,0,0,1,-870.9674286879915,-2367.003132409476) translate(90.5 28.583333333333318)"/><path d="M-875.97-2269.5a6 6 0 0 1 6-6h228a6 6 0 0 1 6 6v48a6 6 0 0 1-6 6h-228a6 6 0 0 1-6-6z" stroke="#000" stroke-opacity="0" stroke-width="5" fill="#fff" fill-opacity="0"/><use xlink:href="#g" transform="matrix(1,0,0,1,-870.9674286879915,-2270.5070694173737) translate(22.555555555555628 32.708333333333314)"/><use xlink:href="#h" transform="matrix(1,0,0,1,-870.9674286879915,-2270.5070694173737) translate(82.62222222222225 32.708333333333314)"/><use xlink:href="#i" transform="matrix(1,0,0,1,-870.9674286879915,-2270.5070694173737) translate(152.37777777777777 32.708333333333314)"/><path d="M-617.78-2326.1a6 6 0 0 1 6-6h155a6 6 0 0 1 6 6v68a6 6 0 0 1-6 6h-155a6 6 0 0 1-6-6z" stroke="#3a414a" stroke-width="5" fill="#fff"/><use xlink:href="#j" transform="matrix(1,0,0,1,-605.7817010952349,-2320.088434246758) translate(35.21111111111114 33.833333333333314)"/><path d="M-1282.05-2323.67h209.56" stroke="#3a414a" stroke-width="5" fill="none"/><path d="M-1282-2321.17h-2.55v-5h2.56z" stroke="#3a414a" stroke-width=".05" fill="#3a414a"/><path d="M-1055.72-2323.67l-14.27 4.64v-9.27z" stroke="#3a414a" stroke-width="5" fill="#3a414a"/><path d="M-1279.8-2277.84a6 6 0 0 1 6-6h228a6 6 0 0 1 6 6v64.67a6 6 0 0 1-6 6h-228a6 6 0 0 1-6-6z" stroke="#000" stroke-opacity="0" stroke-width="5" fill="#fff" fill-opacity="0"/><g><use xlink:href="#k" transform="matrix(1,0,0,1,-1274.7983715135695,-2278.840402750707) translate(1.2222222222223138 40.083333333333314)"/><use xlink:href="#l" transform="matrix(1,0,0,1,-1274.7983715135695,-2278.840402750707) translate(79.7777777777778 40.083333333333314)"/><use xlink:href="#m" transform="matrix(1,0,0,1,-1274.7983715135695,-2278.840402750707) translate(145.17777777777775 40.083333333333314)"/></g><defs><path fill="#3a414a" d="M337 7C173 7 75-89 75-257v-440h91v441c-2 119 59 182 172 183 112-1 171-65 171-183v-441h91v440C598-89 501 7 337 7" id="n"/><path fill="#3a414a" d="M471-149C477 38 162 52 79-72c-19-26-30-56-32-89h94c6 58 61 95 129 93 60 2 112-28 112-81 0-67-63-65-131-88-100-28-193-49-193-167 0-103 92-151 201-153 116-2 203 64 207 172h-91c-4-59-52-95-119-95-76 0-144 66-90 120 84 83 303 44 305 211" id="o"/><path fill="#3a414a" d="M314-557c178 0 281 125 260 317H136c3 101 78 172 178 172 80 1 134-42 154-101h98C538-67 445 11 314 9 145 4 43-103 43-275c0-173 100-282 271-282zm169 243c-2-105-69-163-173-166-97 0-167 70-173 166h346" id="p"/><path fill="#3a414a" d="M168-459c31-60 88-99 177-99v94c-118-7-177 46-177 166V0H77v-548h91v89" id="q"/><g id="a"><use transform="matrix(0.022222222222222206,0,0,0.022222222222222206,0,0)" xlink:href="#n"/><use transform="matrix(0.022222222222222206,0,0,0.022222222222222206,14.99999999999999,0)" xlink:href="#o"/><use transform="matrix(0.022222222222222206,0,0,0.022222222222222206,26.59999999999998,0)" xlink:href="#p"/><use transform="matrix(0.022222222222222206,0,0,0.022222222222222206,40.37777777777775,0)" xlink:href="#q"/></g><path fill="#3a414a" d="M168-623v233h254v75H168v240h284V0H77v-698h375v75H168" id="r"/><path fill="#3a414a" d="M43-276c0-167 98-274 260-281 96-2 170 48 204 109v-100h92V0h-92v-102C473-41 398 10 302 9 139 2 43-110 43-276zm464 1c0-121-69-203-186-203s-185 82-185 202c0 121 68 205 185 205s186-83 186-204" id="s"/><path fill="#3a414a" d="M331 0C191 9 97-11 97-150v-323H26v-75h71v-138h91v138h143v75H188v323c-9 82 67 74 143 73V0" id="t"/><path fill="#3a414a" d="M168-446c34-61 110-112 205-111 163 6 260 114 260 281S536 2 373 9c-96 1-171-49-205-110V0H77v-740h91v294zm372 170c0-121-69-202-186-202-116 0-186 84-186 203 0 120 70 204 186 204 117 0 186-83 186-205" id="u"/><path fill="#3a414a" d="M168-740V0H77v-740h91" id="v"/><g id="b"><use transform="matrix(0.022222222222222206,0,0,0.022222222222222206,0,0)" xlink:href="#r"/><use transform="matrix(0.022222222222222206,0,0,0.022222222222222206,11.399999999999991,0)" xlink:href="#s"/><use transform="matrix(0.022222222222222206,0,0,0.022222222222222206,26.422222222222203,0)" xlink:href="#t"/><use transform="matrix(0.022222222222222206,0,0,0.022222222222222206,34.511111111111084,0)" xlink:href="#s"/><use transform="matrix(0.022222222222222206,0,0,0.022222222222222206,49.533333333333296,0)" xlink:href="#u"/><use transform="matrix(0.022222222222222206,0,0,0.022222222222222206,64.55555555555551,0)" xlink:href="#v"/><use transform="matrix(0.022222222222222206,0,0,0.022222222222222206,70.02222222222218,0)" xlink:href="#p"/><use transform="matrix(0.022222222222222206,0,0,0.022222222222222206,83.79999999999995,0)" xlink:href="#o"/></g><path fill="#3a414a" d="M315-71c102 0 157-68 157-176v-301h91V0h-91v-81C441-29 376 8 297 8 154 4 72-80 72-227v-321h90v309c-2 103 55 168 153 168" id="w"/><g id="c"><use transform="matrix(0.022222222222222206,0,0,0.022222222222222206,0,0)" xlink:href="#w"/><use transform="matrix(0.022222222222222206,0,0,0.022222222222222206,14.22222222222221,0)" xlink:href="#o"/><use transform="matrix(0.022222222222222206,0,0,0.022222222222222206,25.8222222222222,0)" xlink:href="#p"/><use transform="matrix(0.022222222222222206,0,0,0.022222222222222206,39.599999999999966,0)" xlink:href="#q"/></g><path fill="#3a414a" d="M124-637c-34 1-63-28-62-62-1-34 28-63 62-62 33-1 61 29 60 62 1 33-27 63-60 62zm44 89V0H77v-548h91" id="x"/><path fill="#3a414a" d="M43-276c0-168 98-275 261-281 90 0 169 48 203 107v-290h92V0h-92v-103C473-41 399 10 303 9 140 2 43-109 43-276zm464 1c0-121-69-203-186-203s-185 82-185 202c0 121 68 205 185 205s186-83 186-204" id="y"/><path fill="#3a414a" d="M171-126L59 143H-2l73-269h100" id="z"/><g id="d"><use transform="matrix(0.022222222222222206,0,0,0.022222222222222206,0,0)" xlink:href="#x"/><use transform="matrix(0.022222222222222206,0,0,0.022222222222222206,5.466666666666662,0)" xlink:href="#y"/><use transform="matrix(0.022222222222222206,0,0,0.022222222222222206,20.488888888888873,0)" xlink:href="#z"/></g><path fill="#3a414a" d="M168-447c34-60 110-111 205-110 162 7 260 114 260 281S536 2 373 9c-95 1-170-51-205-110v361H77v-808h91v101zm372 171c0-121-69-202-186-202-116 0-186 84-186 203 0 120 70 204 186 204 117 0 186-83 186-205" id="A"/><g id="e"><use transform="matrix(0.022222222222222206,0,0,0.022222222222222206,0,0)" xlink:href="#A"/><use transform="matrix(0.022222222222222206,0,0,0.022222222222222206,15.022222222222211,0)" xlink:href="#s"/><use transform="matrix(0.022222222222222206,0,0,0.022222222222222206,30.044444444444423,0)" xlink:href="#o"/><use transform="matrix(0.022222222222222206,0,0,0.022222222222222206,41.64444444444442,0)" xlink:href="#o"/></g><path fill="#3a414a" d="M43-276c0-168 98-275 261-281 94-2 171 49 203 109v-100h92v808h-92v-361C473-42 396 11 301 9 139 2 43-110 43-276zm464 1c0-121-69-203-186-203s-185 82-185 202c0 121 68 205 185 205s186-83 186-204" id="B"/><path fill="#3a414a" d="M549-548L219 258h-94L233-6 12-548h101l172 444 170-444h94" id="C"/><g id="f"><use transform="matrix(0.022222222222222206,0,0,0.022222222222222206,0,0)" xlink:href="#B"/><use transform="matrix(0.022222222222222206,0,0,0.022222222222222206,15.022222222222211,0)" xlink:href="#w"/><use transform="matrix(0.022222222222222206,0,0,0.022222222222222206,29.244444444444422,0)" xlink:href="#p"/><use transform="matrix(0.022222222222222206,0,0,0.022222222222222206,43.02222222222219,0)" xlink:href="#q"/><use transform="matrix(0.022222222222222206,0,0,0.022222222222222206,51.311111111111074,0)" xlink:href="#C"/></g><path fill="#3a414a" d="M316 9C147 9 43-103 43-275s107-282 277-282 277 110 277 282C597-102 486 9 316 9zm0-80c117 0 187-81 188-204-2-123-68-203-185-203-118 0-182 80-183 203 1 123 63 204 180 204" id="D"/><path fill="#3a414a" d="M303-557c95-1 171 49 204 109v-100h92V12c-4 160-101 254-262 258-138 2-249-71-265-190h90c19 66 89 112 175 111 103 0 170-71 170-179v-115C473-42 399 10 303 9 140 2 43-109 43-276s98-274 260-281zm204 282c0-121-69-203-186-203s-185 82-185 202c0 121 68 205 185 205s186-83 186-204" id="E"/><g id="g"><use transform="matrix(0.022222222222222206,0,0,0.022222222222222206,0,0)" xlink:href="#u"/><use transform="matrix(0.022222222222222206,0,0,0.022222222222222206,15.022222222222211,0)" xlink:href="#v"/><use transform="matrix(0.022222222222222206,0,0,0.022222222222222206,20.488888888888873,0)" xlink:href="#D"/><use transform="matrix(0.022222222222222206,0,0,0.022222222222222206,34.71111111111108,0)" xlink:href="#E"/><use transform="matrix(0.022222222222222206,0,0,0.022222222222222206,49.7333333333333,0)" xlink:href="#z"/></g><g id="h"><use transform="matrix(0.022222222222222206,0,0,0.022222222222222206,0,0)" xlink:href="#B"/><use transform="matrix(0.022222222222222206,0,0,0.022222222222222206,15.022222222222211,0)" xlink:href="#w"/><use transform="matrix(0.022222222222222206,0,0,0.022222222222222206,29.244444444444422,0)" xlink:href="#p"/><use transform="matrix(0.022222222222222206,0,0,0.022222222222222206,43.02222222222219,0)" xlink:href="#q"/><use transform="matrix(0.022222222222222206,0,0,0.022222222222222206,51.311111111111074,0)" xlink:href="#C"/></g><g id="i"><use transform="matrix(0.022222222222222206,0,0,0.022222222222222206,0,0)" xlink:href="#q"/><use transform="matrix(0.022222222222222206,0,0,0.022222222222222206,8.288888888888883,0)" xlink:href="#p"/><use transform="matrix(0.022222222222222206,0,0,0.022222222222222206,22.06666666666665,0)" xlink:href="#A"/><use transform="matrix(0.022222222222222206,0,0,0.022222222222222206,37.08888888888886,0)" xlink:href="#v"/><use transform="matrix(0.022222222222222206,0,0,0.022222222222222206,42.55555555555552,0)" xlink:href="#C"/></g><path fill="#3a414a" d="M489-155H185L129 0H33l252-693h105L641 0h-96zm-26-74L337-581 211-229h252" id="F"/><path fill="#3a414a" d="M736-558c142 3 222 89 222 235V0h-90v-310c2-103-53-169-150-169-100 1-155 70-155 177V0h-90v-310c2-103-53-169-150-169-100 1-155 70-155 177V0H77v-548h91v79c32-53 93-88 173-89 99 1 171 48 201 122 26-71 101-121 194-122" id="G"/><path fill="#3a414a" d="M344-558c137 0 224 90 224 235V0h-90v-310c2-103-54-169-153-169-101 1-157 69-157 176V0H77v-548h91v78c32-52 96-88 176-88" id="H"/><g id="j"><use transform="matrix(0.022222222222222206,0,0,0.022222222222222206,0,0)" xlink:href="#F"/><use transform="matrix(0.022222222222222206,0,0,0.022222222222222206,14.977777777777767,0)" xlink:href="#y"/><use transform="matrix(0.022222222222222206,0,0,0.022222222222222206,29.99999999999998,0)" xlink:href="#G"/><use transform="matrix(0.022222222222222206,0,0,0.022222222222222206,52.88888888888885,0)" xlink:href="#x"/><use transform="matrix(0.022222222222222206,0,0,0.022222222222222206,58.35555555555551,0)" xlink:href="#H"/></g><g id="k"><use transform="matrix(0.022222222222222206,0,0,0.022222222222222206,0,0)" xlink:href="#s"/><use transform="matrix(0.022222222222222206,0,0,0.022222222222222206,15.022222222222211,0)" xlink:href="#y"/><use transform="matrix(0.022222222222222206,0,0,0.022222222222222206,30.044444444444423,0)" xlink:href="#G"/><use transform="matrix(0.022222222222222206,0,0,0.022222222222222206,52.933333333333294,0)" xlink:href="#x"/><use transform="matrix(0.022222222222222206,0,0,0.022222222222222206,58.399999999999956,0)" xlink:href="#H"/></g><g id="l"><use transform="matrix(0.022222222222222206,0,0,0.022222222222222206,0,0)" xlink:href="#q"/><use transform="matrix(0.022222222222222206,0,0,0.022222222222222206,8.288888888888883,0)" xlink:href="#p"/><use transform="matrix(0.022222222222222206,0,0,0.022222222222222206,22.06666666666665,0)" xlink:href="#A"/><use transform="matrix(0.022222222222222206,0,0,0.022222222222222206,37.08888888888886,0)" xlink:href="#v"/><use transform="matrix(0.022222222222222206,0,0,0.022222222222222206,42.55555555555552,0)" xlink:href="#C"/><use transform="matrix(0.022222222222222206,0,0,0.022222222222222206,55.06666666666661,0)" xlink:href="#z"/></g><path fill="#3a414a" d="M281-84l170-464h97L333 0H227L12-548h98" id="I"/><path fill="#3a414a" d="M807-548L636 0h-94L410-435 278 0h-94L12-548h93L231-88l136-460h93L593-87l124-461h90" id="J"/><g id="m"><use transform="matrix(0.022222222222222206,0,0,0.022222222222222206,0,0)" xlink:href="#q"/><use transform="matrix(0.022222222222222206,0,0,0.022222222222222206,8.288888888888883,0)" xlink:href="#p"/><use transform="matrix(0.022222222222222206,0,0,0.022222222222222206,22.06666666666665,0)" xlink:href="#I"/><use transform="matrix(0.022222222222222206,0,0,0.022222222222222206,34.5333333333333,0)" xlink:href="#x"/><use transform="matrix(0.022222222222222206,0,0,0.022222222222222206,39.999999999999964,0)" xlink:href="#p"/><use transform="matrix(0.022222222222222206,0,0,0.022222222222222206,53.77777777777773,0)" xlink:href="#J"/><use transform="matrix(0.022222222222222206,0,0,0.022222222222222206,71.99999999999994,0)" xlink:href="#o"/></g></defs></g></svg>